<svg width="187" height="57" viewBox="0 0 187 57" fill="none" xmlns="http://www.w3.org/2000/svg">
<path d="M18.8727 23.5835C18.7549 23.6878 14.6597 19.162 11.1188 12.5019C9.40729 9.17184 8.27088 5.76532 8.67971 3.17219C9.07469 0.426118 11.1951 -0.0813842 11.098 0.113274C11.202 0.175843 9.47659 0.808483 9.28256 3.24867C9.0539 5.59847 10.2042 8.83814 11.8811 12.0987C15.3526 18.6336 19.1291 23.3958 18.8658 23.5835H18.8727Z" fill="#D97706"/>
<g opacity="0.61">
<path d="M29.6962 21.074C31.1999 21.074 32.4333 22.3184 32.4333 23.834V33.1289C32.4333 34.6514 31.1999 35.8889 29.6962 35.8889H20.4802C18.9766 35.8889 17.7432 34.6444 17.7432 33.1289V23.834C17.7432 22.3184 18.9766 21.074 20.4802 21.074H29.6962Z" fill="#FFFFFF"/>
</g>
<g opacity="0.76">
<path d="M49.431 35.8887C50.9347 35.8887 52.1681 37.1331 52.1681 38.6487V47.9436C52.1681 49.4591 50.9347 50.7036 49.431 50.7036H40.2219C38.7183 50.7036 37.4849 49.4591 37.4849 47.9436V38.6487C37.4849 37.1331 38.7183 35.8887 40.2219 35.8887H49.431Z" fill="#FFFFFF"/>
</g>
<g opacity="0.62">
<path d="M38.7182 13.7605C39.7714 13.7605 40.6376 14.6295 40.6376 15.6932V22.2003C40.6376 23.264 39.7784 24.133 38.7182 24.133H32.267C31.2137 24.133 30.3545 23.264 30.3545 22.2003V15.6932C30.3545 14.6295 31.2137 13.7605 32.267 13.7605H38.7182Z" fill="#FFFFFF"/>
</g>
<g opacity="0.31">
<path d="M48.2182 23.7576C49.2714 23.7576 50.1376 24.6266 50.1376 25.6903V32.1974C50.1376 33.2611 49.2714 34.1301 48.2182 34.1301H41.7739C40.7207 34.1301 39.8545 33.2611 39.8545 32.1974V25.6903C39.8545 24.6266 40.7137 23.7576 41.7739 23.7576H48.2182Z" fill="#FFFFFF"/>
</g>
<g opacity="0.39">
<path d="M20.9721 30.7026C22.0253 30.7026 22.8915 31.5716 22.8915 32.6353V39.1425C22.8915 40.2061 22.0253 41.0752 20.9721 41.0752H14.5278C13.4746 41.0752 12.6084 40.2061 12.6084 39.1425V32.6353C12.6084 31.5716 13.4746 30.7026 14.5278 30.7026H20.9721Z" fill="#FFFFFF"/>
</g>
<g opacity="0.72">
<path d="M22.3509 9.65161C23.8546 9.65161 25.088 10.896 25.088 12.4116V21.7065C25.088 23.2221 23.8546 24.4665 22.3509 24.4665H13.1419C11.6382 24.4665 10.4048 23.2221 10.4048 21.7065V12.4116C10.4048 10.896 11.6382 9.65161 13.1419 9.65161H22.3509Z" fill="#FFFFFF"/>
</g>
<g opacity="0.55">
<path d="M31.373 38.1067C32.4262 38.1067 33.2924 38.9757 33.2924 40.0394V46.5465C33.2924 47.6102 32.4331 48.4792 31.373 48.4792H24.9287C23.8754 48.4792 23.0093 47.6102 23.0093 46.5465V40.0394C23.0093 38.9757 23.8685 38.1067 24.9287 38.1067H31.373Z" fill="#FFFFFF"/>
</g>
<g opacity="0.76">
<path d="M40.0966 28.478C41.6003 28.478 42.8337 29.7225 42.8337 31.238V40.526C42.8337 42.0415 41.6003 43.286 40.0966 43.286H30.8806C29.377 43.286 28.1436 42.0415 28.1436 40.526V31.238C28.1436 29.7155 29.377 28.478 30.8806 28.478H40.0966Z" fill="#FFFFFF"/>
</g>
<path d="M39.9238 12.6479C39.903 12.6062 41.1572 11.904 43.5409 10.8751C45.9315 9.9296 49.4654 8.35148 54.212 8.25415C55.39 8.26805 56.6581 8.4349 57.8776 8.99802C58.4805 9.28306 59.0695 9.67933 59.5337 10.2285C59.6515 10.3676 59.7624 10.5136 59.8525 10.6804C59.9772 10.8195 60.0257 11.2157 60.0118 11.3478C59.9911 11.751 59.8871 12.1195 59.7347 12.4602C58.425 15.0811 56.1314 16.9929 53.7962 19.0021C49.015 22.9161 43.2845 26.559 37.0481 29.9169C30.784 33.2539 24.5892 35.9582 18.7963 38.0021C12.9964 39.9487 7.5985 41.5964 2.81727 41.2001C1.70858 41.068 0.246493 40.5605 0.045543 39.2187C-0.120761 38.1064 0.184129 37.0149 0.703828 36.2085C1.74323 34.5887 3.03901 33.6084 4.03683 32.7811C6.09484 31.1821 7.32825 30.4452 7.35597 30.48C7.39755 30.5425 6.22649 31.3768 4.25164 33.0453C3.29539 33.9004 2.04812 34.9363 1.11959 36.4588C0.655323 37.2165 0.426655 38.162 0.58603 39.1284C0.717687 40.0391 1.81945 40.4701 2.89349 40.5883C7.40448 40.8942 12.8093 39.2257 18.526 37.2444C24.2566 35.1726 30.4167 32.4544 36.6393 29.1452C42.841 25.8082 48.5438 22.207 53.2904 18.3764C55.5909 16.4437 57.8984 14.4832 59.0695 12.1751C59.2011 11.8901 59.2773 11.5981 59.2981 11.327C59.2704 11.1254 59.3397 11.1671 59.2427 11.035C59.1734 10.9098 59.0833 10.7917 58.9932 10.6735C58.6191 10.2146 58.1132 9.86008 57.5797 9.5959C56.5056 9.08145 55.3138 8.89374 54.1912 8.86593C49.6387 8.87289 46.0562 10.3398 43.6587 11.1879C41.2473 12.1126 39.9445 12.7104 39.9099 12.6409L39.9238 12.6479Z" fill="#D97706"/>
<path d="M9.85742 0.718274C9.85742 0.718274 9.92672 0.377622 10.4672 0.134299C11.0077 -0.115976 11.8877 -0.00474258 12.8578 0.37067C14.8188 1.1354 17.3134 2.88733 20.0989 5.33446C25.677 10.2357 32.447 18.029 38.7665 27.4212C41.9263 32.1208 44.698 36.7648 46.8946 41.1655C49.0288 45.5731 50.879 49.7027 51.0868 53.568C51.364 55.5146 49.4792 57.5516 47.8162 56.8633C46.3264 56.3836 45.3632 55.5077 44.5525 54.875C42.9726 53.5263 42.1965 52.6782 42.2312 52.6434C42.2797 52.5878 43.132 53.3525 44.7604 54.6039C45.585 55.1879 46.6105 56.0152 47.934 56.3906C49.2852 56.8703 50.6919 55.3478 50.4771 53.575C50.2138 49.9738 48.3428 45.8582 46.1878 41.527C43.9704 37.182 41.1918 32.5797 38.0528 27.9079C31.761 18.5573 25.1158 10.7571 19.697 5.78635C16.9946 3.30445 14.5901 1.50386 12.74 0.676562C11.8253 0.266389 11.0285 0.120395 10.5365 0.287245C10.0445 0.447143 9.90593 0.746083 9.87128 0.70437L9.85742 0.718274Z" fill="#D97706"/>
<path d="M74.7042 17H81.6942C81.9608 17 82.1875 16.9733 82.3742 16.92C82.5608 16.86 82.7275 16.8033 82.8742 16.75C83.0208 16.69 83.1708 16.66 83.3242 16.66C83.5842 16.66 83.7775 16.7233 83.9042 16.85C84.0375 16.9767 84.1442 17.1933 84.2242 17.5L84.8842 20.82C84.9242 21.04 84.9042 21.22 84.8242 21.36C84.7508 21.4933 84.6208 21.5767 84.4342 21.61C84.2542 21.65 84.0975 21.64 83.9642 21.58C83.8308 21.5133 83.7175 21.3867 83.6242 21.2C83.2508 20.4 82.9275 19.7867 82.6542 19.36C82.3808 18.9333 82.1175 18.64 81.8642 18.48C81.6108 18.3133 81.3175 18.23 80.9842 18.23H80.1242V29.12C80.1242 29.2733 80.1675 29.4 80.2542 29.5C80.3408 29.5933 80.4642 29.6667 80.6242 29.72L81.1142 29.85C81.4142 29.9567 81.5642 30.1567 81.5642 30.45C81.5642 30.8167 81.3308 31 80.8642 31H75.5342C75.2942 31 75.1175 30.95 75.0042 30.85C74.8908 30.75 74.8342 30.6167 74.8342 30.45C74.8342 30.1567 74.9842 29.9567 75.2842 29.85L75.7742 29.72C75.9408 29.6667 76.0642 29.5933 76.1442 29.5C76.2308 29.4 76.2742 29.2733 76.2742 29.12V18.23H75.4142C75.0875 18.23 74.7975 18.3133 74.5442 18.48C74.2908 18.64 74.0275 18.9333 73.7542 19.36C73.4808 19.7867 73.1542 20.4 72.7742 21.2C72.6808 21.3867 72.5675 21.5133 72.4342 21.58C72.3008 21.64 72.1475 21.65 71.9742 21.61C71.7875 21.5767 71.6542 21.4933 71.5742 21.36C71.5008 21.22 71.4842 21.04 71.5242 20.82L72.1742 17.5C72.2542 17.1933 72.3575 16.9767 72.4842 16.85C72.6175 16.7233 72.8175 16.66 73.0842 16.66C73.2375 16.66 73.3842 16.69 73.5242 16.75C73.6708 16.8033 73.8375 16.86 74.0242 16.92C74.2108 16.9733 74.4375 17 74.7042 17ZM94.6435 25.05C94.6435 25.4433 94.5335 25.75 94.3135 25.97C94.0935 26.1833 93.7769 26.29 93.3635 26.29H87.2735V25.42H90.6535C90.9935 25.42 91.1635 25.26 91.1635 24.94C91.1635 24.06 91.0335 23.4133 90.7735 23C90.5202 22.58 90.1802 22.37 89.7535 22.37C89.4335 22.37 89.1469 22.4767 88.8935 22.69C88.6402 22.9033 88.4402 23.22 88.2935 23.64C88.1535 24.06 88.0835 24.5767 88.0835 25.19C88.0835 26.45 88.3702 27.3833 88.9435 27.99C89.5235 28.5967 90.2969 28.9 91.2635 28.9C91.7902 28.9 92.2569 28.8133 92.6635 28.64C93.0702 28.46 93.4135 28.1767 93.6935 27.79C93.8469 27.6433 93.9635 27.5467 94.0435 27.5C94.1235 27.4467 94.2035 27.42 94.2835 27.42C94.3969 27.42 94.4802 27.4767 94.5335 27.59C94.5869 27.6967 94.6135 27.8267 94.6135 27.98C94.6002 28.5667 94.4002 29.11 94.0135 29.61C93.6269 30.11 93.0969 30.51 92.4235 30.81C91.7502 31.11 90.9735 31.26 90.0935 31.26C89.1069 31.26 88.2269 31.06 87.4535 30.66C86.6802 30.26 86.0702 29.7033 85.6235 28.99C85.1769 28.27 84.9535 27.43 84.9535 26.47C84.9535 25.4233 85.1602 24.5067 85.5735 23.72C85.9935 22.9333 86.5969 22.32 87.3835 21.88C88.1702 21.4333 89.1135 21.21 90.2135 21.21C91.1735 21.21 91.9802 21.3767 92.6335 21.71C93.2935 22.0367 93.7935 22.49 94.1335 23.07C94.4735 23.6433 94.6435 24.3033 94.6435 25.05ZM105.313 24.12C105.313 24.56 105.153 24.9333 104.833 25.24C104.513 25.54 104.086 25.69 103.553 25.69C103.033 25.69 102.64 25.55 102.373 25.27C102.106 24.9833 101.973 24.6167 101.973 24.17V23.82C101.973 23.38 101.86 23.03 101.633 22.77C101.406 22.5033 101.103 22.37 100.723 22.37C100.396 22.37 100.1 22.48 99.8329 22.7C99.5662 22.9133 99.3529 23.23 99.1929 23.65C99.0329 24.0633 98.9529 24.5733 98.9529 25.18C98.9529 25.9867 99.0896 26.6667 99.3629 27.22C99.6362 27.7667 100.01 28.1833 100.483 28.47C100.963 28.75 101.506 28.89 102.113 28.89C102.62 28.89 103.063 28.8033 103.443 28.63C103.83 28.4567 104.166 28.1867 104.453 27.82C104.6 27.6733 104.713 27.5767 104.793 27.53C104.88 27.4767 104.963 27.45 105.043 27.45C105.156 27.45 105.24 27.5067 105.293 27.62C105.346 27.7267 105.373 27.8567 105.373 28.01C105.353 28.5967 105.153 29.1367 104.773 29.63C104.393 30.1233 103.873 30.52 103.213 30.82C102.56 31.1133 101.803 31.26 100.943 31.26C99.9562 31.26 99.0796 31.0633 98.3129 30.67C97.5462 30.27 96.9396 29.7133 96.4929 29C96.0462 28.28 95.8229 27.44 95.8229 26.48C95.8229 25.4733 96.0429 24.5733 96.4829 23.78C96.9229 22.9867 97.5396 22.36 98.3329 21.9C99.1329 21.44 100.073 21.21 101.153 21.21C102.013 21.21 102.753 21.3433 103.373 21.61C103.993 21.87 104.47 22.22 104.803 22.66C105.143 23.1 105.313 23.5867 105.313 24.12ZM107.216 31C106.996 31 106.839 30.9567 106.746 30.87C106.653 30.7833 106.606 30.6633 106.606 30.51C106.606 30.4033 106.636 30.31 106.696 30.23C106.756 30.1433 106.853 30.0733 106.986 30.02L107.306 29.92C107.413 29.88 107.489 29.81 107.536 29.71C107.589 29.61 107.616 29.4433 107.616 29.21V18.68C107.616 18.4933 107.589 18.36 107.536 18.28C107.483 18.2 107.399 18.1467 107.286 18.12L106.906 18.07C106.779 18.0367 106.686 17.9867 106.626 17.92C106.573 17.8467 106.546 17.7533 106.546 17.64C106.546 17.5133 106.583 17.4133 106.656 17.34C106.729 17.26 106.866 17.18 107.066 17.1L109.166 16.33C109.453 16.2167 109.683 16.1367 109.856 16.09C110.036 16.0433 110.206 16.02 110.366 16.02C110.613 16.02 110.799 16.09 110.926 16.23C111.053 16.3633 111.116 16.54 111.116 16.76V29.21C111.116 29.4367 111.139 29.6 111.186 29.7C111.233 29.8 111.313 29.8733 111.426 29.92L111.716 30.03C111.923 30.13 112.026 30.28 112.026 30.48C112.026 30.8267 111.813 31 111.386 31H107.216ZM110.106 26.7L114.026 23.49C114.259 23.2967 114.363 23.11 114.336 22.93C114.316 22.7433 114.176 22.6033 113.916 22.51L113.606 22.41C113.479 22.3633 113.393 22.3067 113.346 22.24C113.299 22.1667 113.276 22.0733 113.276 21.96C113.276 21.8067 113.329 21.69 113.436 21.61C113.543 21.5233 113.689 21.48 113.876 21.48H117.586C117.773 21.48 117.919 21.5233 118.026 21.61C118.139 21.69 118.196 21.8 118.196 21.94C118.196 22.08 118.153 22.2 118.066 22.3C117.979 22.3933 117.789 22.4767 117.496 22.55C117.143 22.6433 116.816 22.7733 116.516 22.94C116.223 23.1 115.863 23.35 115.436 23.69L110.506 27.62L110.106 26.7ZM113.896 24.01L117.476 29.32C117.609 29.5 117.726 29.6367 117.826 29.73C117.933 29.8167 118.069 29.8967 118.236 29.97C118.376 30.0567 118.483 30.1467 118.556 30.24C118.636 30.3333 118.676 30.4367 118.676 30.55C118.676 30.69 118.623 30.8 118.516 30.88C118.409 30.96 118.266 31 118.086 31H113.666C113.506 31 113.376 30.9567 113.276 30.87C113.176 30.7833 113.126 30.6667 113.126 30.52C113.126 30.4267 113.149 30.3467 113.196 30.28C113.243 30.2133 113.316 30.1533 113.416 30.1L113.686 30C113.833 29.9467 113.909 29.8667 113.916 29.76C113.929 29.6533 113.856 29.48 113.696 29.24L111.596 26.1L113.896 24.01ZM123.811 21.97V29.21C123.811 29.4367 123.835 29.6033 123.881 29.71C123.928 29.81 124.008 29.88 124.121 29.92L124.421 30.02C124.561 30.0733 124.661 30.14 124.721 30.22C124.781 30.3 124.811 30.3967 124.811 30.51C124.811 30.6633 124.761 30.7833 124.661 30.87C124.561 30.9567 124.401 31 124.181 31H119.921C119.708 31 119.551 30.9567 119.451 30.87C119.351 30.7833 119.301 30.6633 119.301 30.51C119.301 30.4033 119.331 30.31 119.391 30.23C119.451 30.1433 119.548 30.0733 119.681 30.02L120.001 29.92C120.108 29.88 120.185 29.81 120.231 29.71C120.285 29.61 120.311 29.4433 120.311 29.21V23.9C120.311 23.7133 120.285 23.58 120.231 23.5C120.178 23.42 120.095 23.3667 119.981 23.34L119.601 23.29C119.475 23.2567 119.381 23.2067 119.321 23.14C119.268 23.0667 119.241 22.9733 119.241 22.86C119.241 22.7333 119.278 22.6333 119.351 22.56C119.425 22.48 119.561 22.4 119.761 22.32L121.871 21.55C122.165 21.43 122.398 21.35 122.571 21.31C122.745 21.2633 122.898 21.24 123.031 21.24C123.291 21.24 123.485 21.31 123.611 21.45C123.745 21.5833 123.811 21.7567 123.811 21.97ZM121.851 20.04C121.211 20.04 120.705 19.8867 120.331 19.58C119.958 19.2667 119.771 18.8467 119.771 18.32C119.771 17.8067 119.958 17.3967 120.331 17.09C120.705 16.7833 121.211 16.63 121.851 16.63C122.485 16.63 122.988 16.7833 123.361 17.09C123.741 17.3967 123.931 17.8067 123.931 18.32C123.931 18.8467 123.741 19.2667 123.361 19.58C122.988 19.8867 122.485 20.04 121.851 20.04ZM131.362 21.21C132.436 21.21 133.376 21.4233 134.182 21.85C134.996 22.2767 135.626 22.87 136.072 23.63C136.526 24.3833 136.752 25.2633 136.752 26.27C136.752 27.21 136.516 28.0567 136.042 28.81C135.576 29.5633 134.929 30.16 134.102 30.6C133.276 31.04 132.319 31.26 131.232 31.26C130.159 31.26 129.219 31.0467 128.412 30.62C127.606 30.1867 126.976 29.5933 126.522 28.84C126.069 28.08 125.842 27.2033 125.842 26.21C125.842 25.25 126.076 24.3967 126.542 23.65C127.016 22.8967 127.666 22.3033 128.492 21.87C129.319 21.43 130.276 21.21 131.362 21.21ZM132.072 30.06C132.426 30 132.706 29.81 132.912 29.49C133.119 29.1633 133.236 28.7067 133.262 28.12C133.296 27.5267 133.226 26.7967 133.052 25.93C132.892 25.0767 132.686 24.38 132.432 23.84C132.179 23.2933 131.889 22.9 131.562 22.66C131.242 22.42 130.896 22.3367 130.522 22.41C130.169 22.4767 129.889 22.6733 129.682 23C129.482 23.32 129.369 23.7733 129.342 24.36C129.316 24.9467 129.382 25.6767 129.542 26.55C129.709 27.39 129.919 28.0833 130.172 28.63C130.426 29.1767 130.712 29.57 131.032 29.81C131.359 30.0433 131.706 30.1267 132.072 30.06ZM146.372 23.34H149.242C149.662 23.34 149.962 23.2567 150.142 23.09C150.322 22.9233 150.468 22.6 150.582 22.12C150.628 21.9333 150.702 21.7967 150.802 21.71C150.908 21.6233 151.032 21.58 151.172 21.58C151.465 21.5733 151.652 21.7367 151.732 22.07L152.512 25.16C152.565 25.36 152.565 25.52 152.512 25.64C152.458 25.76 152.352 25.8467 152.192 25.9C152.038 25.9533 151.895 25.96 151.762 25.92C151.628 25.8733 151.515 25.78 151.422 25.64C151.215 25.3267 151.025 25.0867 150.852 24.92C150.685 24.7533 150.495 24.64 150.282 24.58C150.075 24.52 149.812 24.49 149.492 24.49H146.372V23.34ZM142.492 17.55C142.492 17.3767 142.548 17.2433 142.662 17.15C142.782 17.05 142.962 17 143.202 17H150.832C151.105 17 151.328 16.97 151.502 16.91C151.675 16.8433 151.838 16.78 151.992 16.72C152.152 16.66 152.328 16.63 152.522 16.63C152.762 16.63 152.942 16.6967 153.062 16.83C153.188 16.9633 153.298 17.1867 153.392 17.5L154.222 20.36C154.282 20.56 154.278 20.7267 154.212 20.86C154.152 20.9867 154.038 21.08 153.872 21.14C153.678 21.2067 153.502 21.2033 153.342 21.13C153.188 21.0567 153.062 20.9267 152.962 20.74C152.682 20.2067 152.418 19.7733 152.172 19.44C151.932 19.1 151.688 18.84 151.442 18.66C151.195 18.4733 150.935 18.3467 150.662 18.28C150.395 18.2067 150.088 18.17 149.742 18.17H147.792V28.76C147.792 29.12 147.885 29.39 148.072 29.57C148.265 29.7433 148.545 29.83 148.912 29.83H150.032C150.505 29.83 150.922 29.7533 151.282 29.6C151.642 29.44 151.988 29.14 152.322 28.7C152.662 28.26 153.028 27.62 153.422 26.78C153.502 26.6 153.608 26.48 153.742 26.42C153.882 26.3533 154.038 26.3367 154.212 26.37C154.398 26.4033 154.535 26.49 154.622 26.63C154.708 26.77 154.722 26.9433 154.662 27.15L153.762 30.48C153.675 30.78 153.568 31 153.442 31.14C153.315 31.2867 153.118 31.36 152.852 31.36C152.678 31.36 152.515 31.33 152.362 31.27C152.215 31.21 152.052 31.15 151.872 31.09C151.692 31.03 151.472 31 151.212 31H143.202C142.962 31 142.782 30.95 142.662 30.85C142.548 30.75 142.492 30.6167 142.492 30.45C142.492 30.1567 142.645 29.9567 142.952 29.85L143.432 29.72C143.598 29.6667 143.722 29.5933 143.802 29.5C143.888 29.4 143.932 29.2733 143.932 29.12V18.88C143.932 18.7267 143.888 18.6033 143.802 18.51C143.722 18.41 143.598 18.3333 143.432 18.28L142.952 18.15C142.645 18.0433 142.492 17.8433 142.492 17.55ZM169.338 21.87C169.338 22.49 169.195 23.06 168.908 23.58C168.621 24.0933 168.211 24.5267 167.678 24.88C167.151 25.2267 166.518 25.4667 165.778 25.6C165.471 25.66 165.191 25.7233 164.938 25.79C164.685 25.85 164.428 25.9033 164.168 25.95C163.908 25.9967 163.615 26.02 163.288 26.02C162.875 26.02 162.485 25.9933 162.118 25.94C161.758 25.88 161.431 25.7967 161.138 25.69C160.845 25.5767 160.578 25.45 160.338 25.31L160.378 24.26C160.565 24.3933 160.768 24.5067 160.988 24.6C161.215 24.6867 161.461 24.7533 161.728 24.8C162.001 24.84 162.295 24.86 162.608 24.86C163.481 24.86 164.161 24.62 164.648 24.14C165.141 23.66 165.388 22.9267 165.388 21.94C165.388 21.1933 165.241 20.53 164.948 19.95C164.655 19.3633 164.245 18.9033 163.718 18.57C163.191 18.2367 162.585 18.07 161.898 18.07H161.258V29.11C161.258 29.27 161.291 29.3967 161.358 29.49C161.431 29.5833 161.541 29.66 161.688 29.72L162.178 29.85C162.358 29.93 162.478 30.0167 162.538 30.11C162.605 30.1967 162.638 30.31 162.638 30.45C162.638 30.8167 162.405 31 161.938 31H156.668C156.428 31 156.251 30.95 156.138 30.85C156.025 30.75 155.968 30.6167 155.968 30.45C155.968 30.1567 156.118 29.9567 156.418 29.85L156.908 29.72C157.075 29.6667 157.198 29.5933 157.278 29.5C157.365 29.4 157.408 29.27 157.408 29.11V18.88C157.408 18.7267 157.365 18.6033 157.278 18.51C157.198 18.41 157.075 18.3333 156.908 18.28L156.418 18.15C156.118 18.0433 155.968 17.8433 155.968 17.55C155.968 17.3767 156.025 17.2433 156.138 17.15C156.251 17.05 156.428 17 156.668 17H162.038C163.605 17 164.931 17.2067 166.018 17.62C167.105 18.0333 167.928 18.6067 168.488 19.34C169.055 20.0667 169.338 20.91 169.338 21.87ZM163.018 25.56L166.758 25.13L169.188 29.15C169.308 29.35 169.425 29.5033 169.538 29.61C169.651 29.71 169.801 29.7933 169.988 29.86C170.168 29.9333 170.295 30.0167 170.368 30.11C170.441 30.1967 170.478 30.31 170.478 30.45C170.478 30.6167 170.418 30.75 170.298 30.85C170.185 30.95 170.008 31 169.768 31H165.128C164.675 31 164.448 30.8167 164.448 30.45C164.448 30.3567 164.468 30.2767 164.508 30.21C164.555 30.1433 164.628 30.08 164.728 30.02L164.948 29.94C165.081 29.86 165.158 29.7767 165.178 29.69C165.198 29.5967 165.161 29.4667 165.068 29.3L163.018 25.56ZM184.79 22.18C184.79 23.06 184.564 23.82 184.11 24.46C183.657 25.0933 183.01 25.5867 182.17 25.94C181.33 26.2933 180.334 26.47 179.18 26.47C178.414 26.47 177.727 26.3867 177.12 26.22C176.514 26.0533 175.974 25.8233 175.5 25.53L175.64 24.51C175.894 24.6833 176.147 24.8267 176.4 24.94C176.66 25.0533 176.93 25.1367 177.21 25.19C177.497 25.2433 177.8 25.27 178.12 25.27C178.674 25.27 179.17 25.1533 179.61 24.92C180.05 24.68 180.4 24.3233 180.66 23.85C180.92 23.37 181.05 22.7833 181.05 22.09C181.05 21.2833 180.9 20.5867 180.6 20C180.3 19.4133 179.887 18.96 179.36 18.64C178.834 18.32 178.22 18.16 177.52 18.16H177.01V29.12C177.01 29.2733 177.047 29.4033 177.12 29.51C177.2 29.6167 177.33 29.6867 177.51 29.72L178.24 29.85C178.427 29.8833 178.56 29.95 178.64 30.05C178.72 30.1433 178.76 30.2767 178.76 30.45C178.76 30.6167 178.704 30.75 178.59 30.85C178.477 30.95 178.3 31 178.06 31H172.42C172.18 31 172 30.95 171.88 30.85C171.767 30.75 171.71 30.6167 171.71 30.45C171.71 30.1567 171.864 29.9567 172.17 29.85L172.65 29.72C172.824 29.6667 172.95 29.5933 173.03 29.5C173.11 29.4 173.15 29.2733 173.15 29.12V18.88C173.15 18.7267 173.11 18.6033 173.03 18.51C172.95 18.41 172.827 18.3333 172.66 18.28L172.17 18.14C171.864 18.04 171.71 17.8433 171.71 17.55C171.71 17.3767 171.767 17.2433 171.88 17.15C172 17.05 172.177 17 172.41 17H177.63C179.15 17 180.444 17.2233 181.51 17.67C182.577 18.11 183.39 18.72 183.95 19.5C184.51 20.28 184.79 21.1733 184.79 22.18Z" fill="#E8EEF7"/>
<path d="M73.6182 44.128C73.3835 44.128 73.1808 44.0987 73.0102 44.04C72.8422 43.9813 72.7048 43.924 72.5982 43.868C72.4942 43.8093 72.4208 43.78 72.3782 43.78C72.3328 43.78 72.2968 43.7973 72.2702 43.832C72.2435 43.8667 72.2195 43.908 72.1982 43.956C72.1768 44.0013 72.1528 44.0413 72.1262 44.076C72.0995 44.1107 72.0635 44.128 72.0182 44.128C71.9728 44.128 71.9355 44.1133 71.9062 44.084C71.8795 44.0573 71.8595 44.0133 71.8462 43.952L71.5502 42.692C71.5395 42.644 71.5448 42.6027 71.5662 42.568C71.5875 42.5307 71.6222 42.5027 71.6702 42.484C71.7235 42.468 71.7688 42.4707 71.8062 42.492C71.8462 42.5107 71.8808 42.5493 71.9102 42.608C72.0515 42.8933 72.2102 43.1227 72.3862 43.296C72.5648 43.4693 72.7542 43.596 72.9542 43.676C73.1542 43.7533 73.3582 43.792 73.5662 43.792C73.8648 43.792 74.0982 43.712 74.2662 43.552C74.4342 43.3893 74.5195 43.1773 74.5222 42.916C74.5222 42.7533 74.4848 42.6027 74.4102 42.464C74.3355 42.3253 74.1942 42.192 73.9862 42.064C73.7808 41.9333 73.4782 41.8 73.0782 41.664C72.6782 41.528 72.3582 41.3747 72.1182 41.204C71.8782 41.0333 71.7035 40.8373 71.5942 40.616C71.4848 40.3947 71.4302 40.1413 71.4302 39.856C71.4302 39.5413 71.5035 39.268 71.6502 39.036C71.7968 38.8013 72.0008 38.6187 72.2622 38.488C72.5262 38.3573 72.8328 38.292 73.1822 38.292C73.4328 38.292 73.6382 38.32 73.7982 38.376C73.9582 38.432 74.0862 38.488 74.1822 38.544C74.2808 38.6 74.3608 38.628 74.4222 38.628C74.4808 38.628 74.5195 38.6 74.5382 38.544C74.5595 38.488 74.5822 38.432 74.6062 38.376C74.6302 38.3173 74.6768 38.288 74.7462 38.288C74.7915 38.288 74.8288 38.304 74.8582 38.336C74.8902 38.3653 74.9168 38.4187 74.9382 38.496L75.3262 39.792C75.3448 39.848 75.3435 39.8987 75.3222 39.944C75.3008 39.9893 75.2662 40.0213 75.2182 40.04C75.1648 40.056 75.1182 40.0547 75.0782 40.036C75.0382 40.0147 75.0048 39.9773 74.9782 39.924C74.8208 39.6013 74.6488 39.3467 74.4622 39.16C74.2782 38.9707 74.0848 38.8347 73.8822 38.752C73.6795 38.6693 73.4715 38.628 73.2582 38.628C72.9542 38.628 72.7102 38.716 72.5262 38.892C72.3448 39.0653 72.2542 39.2947 72.2542 39.58C72.2542 39.7453 72.2928 39.9013 72.3702 40.048C72.4475 40.192 72.5875 40.332 72.7902 40.468C72.9928 40.604 73.2835 40.7427 73.6622 40.884C74.0755 41.036 74.4035 41.1973 74.6462 41.368C74.8888 41.536 75.0622 41.724 75.1662 41.932C75.2702 42.1373 75.3208 42.3733 75.3182 42.64C75.3182 42.912 75.2515 43.1613 75.1182 43.388C74.9848 43.612 74.7915 43.792 74.5382 43.928C74.2875 44.0613 73.9808 44.128 73.6182 44.128ZM78.0967 40.156C78.4887 40.156 78.8341 40.24 79.1327 40.408C79.4341 40.5733 79.6687 40.8053 79.8367 41.104C80.0074 41.4 80.0927 41.7413 80.0927 42.128C80.0927 42.504 80.0061 42.84 79.8327 43.136C79.6621 43.432 79.4247 43.6653 79.1207 43.836C78.8194 44.0067 78.4687 44.092 78.0687 44.092C77.6767 44.092 77.3301 44.008 77.0287 43.84C76.7301 43.672 76.4954 43.44 76.3247 43.144C76.1567 42.8453 76.0727 42.504 76.0727 42.12C76.0727 41.7387 76.1581 41.4013 76.3287 41.108C76.5021 40.812 76.7394 40.58 77.0407 40.412C77.3447 40.2413 77.6967 40.156 78.0967 40.156ZM78.3807 43.744C78.6021 43.712 78.7821 43.6213 78.9207 43.472C79.0621 43.32 79.1554 43.1173 79.2007 42.864C79.2487 42.608 79.2434 42.308 79.1847 41.964C79.1261 41.6173 79.0301 41.3307 78.8967 41.104C78.7634 40.8747 78.6021 40.7093 78.4127 40.608C78.2234 40.504 78.0141 40.4693 77.7847 40.504C77.5634 40.536 77.3821 40.628 77.2407 40.78C77.1021 40.9293 77.0087 41.1307 76.9607 41.384C76.9154 41.6373 76.9221 41.9373 76.9807 42.284C77.0394 42.628 77.1354 42.9147 77.2687 43.144C77.4021 43.3733 77.5634 43.5387 77.7527 43.64C77.9421 43.7413 78.1514 43.776 78.3807 43.744ZM82.2722 43.44C82.2722 43.5093 82.2882 43.564 82.3202 43.604C82.3522 43.644 82.4002 43.668 82.4642 43.676L82.8682 43.72C82.9242 43.7253 82.9656 43.7413 82.9922 43.768C83.0189 43.792 83.0322 43.824 83.0322 43.864C83.0322 43.9547 82.9722 44 82.8522 44H81.0402C80.9842 44 80.9402 43.988 80.9082 43.964C80.8789 43.94 80.8642 43.908 80.8642 43.868C80.8642 43.828 80.8762 43.7973 80.9002 43.776C80.9269 43.752 80.9669 43.7333 81.0202 43.72L81.2162 43.68C81.2882 43.6613 81.3402 43.6333 81.3722 43.596C81.4069 43.5587 81.4242 43.508 81.4242 43.444V40.9C81.4242 40.844 81.4109 40.7987 81.3842 40.764C81.3576 40.7267 81.3069 40.6973 81.2322 40.676L81.0162 40.612C80.9309 40.5853 80.8736 40.5587 80.8442 40.532C80.8149 40.5027 80.8002 40.472 80.8002 40.44C80.8002 40.4027 80.8136 40.3733 80.8402 40.352C80.8696 40.328 80.9122 40.316 80.9682 40.316H81.6242L81.4282 40.46V40.324C81.4282 40.2387 81.4082 40.1573 81.3682 40.08C81.3282 40 81.2816 39.92 81.2282 39.84C81.1749 39.7573 81.1282 39.6653 81.0882 39.564C81.0482 39.46 81.0282 39.34 81.0282 39.204C81.0282 38.8973 81.1349 38.6493 81.3482 38.46C81.5642 38.2707 81.8576 38.176 82.2282 38.176C82.4682 38.176 82.6709 38.216 82.8362 38.296C83.0042 38.3733 83.1322 38.4773 83.2202 38.608C83.3082 38.736 83.3522 38.876 83.3522 39.028C83.3522 39.1747 83.3162 39.2867 83.2442 39.364C83.1722 39.4387 83.0776 39.476 82.9602 39.476C82.8349 39.476 82.7349 39.436 82.6602 39.356C82.5856 39.276 82.5482 39.1693 82.5482 39.036V38.844C82.5482 38.708 82.5109 38.604 82.4362 38.532C82.3642 38.46 82.2616 38.424 82.1282 38.424C81.9656 38.424 81.8402 38.4747 81.7522 38.576C81.6669 38.6773 81.6242 38.82 81.6242 39.004C81.6242 39.1213 81.6442 39.2267 81.6842 39.32C81.7242 39.4133 81.7736 39.5 81.8322 39.58C81.8909 39.6573 81.9496 39.7333 82.0082 39.808C82.0669 39.8827 82.1162 39.96 82.1562 40.04C82.1962 40.12 82.2162 40.2053 82.2162 40.296V40.468L82.1042 40.316H83.0522C83.1056 40.316 83.1469 40.3267 83.1762 40.348C83.2056 40.3693 83.2202 40.4 83.2202 40.44C83.2202 40.496 83.1922 40.5427 83.1362 40.58C83.0802 40.6173 82.9909 40.636 82.8682 40.636H82.2722V43.44ZM83.9493 40.572L83.7413 40.516C83.672 40.4973 83.624 40.476 83.5973 40.452C83.5733 40.4253 83.5613 40.396 83.5613 40.364C83.5613 40.3213 83.576 40.2893 83.6053 40.268C83.6347 40.2467 83.6747 40.236 83.7253 40.236H83.9813C84.0533 40.236 84.1107 40.2253 84.1533 40.204C84.1987 40.18 84.2373 40.1373 84.2693 40.076L84.5853 39.496C84.6253 39.432 84.6653 39.3867 84.7053 39.36C84.7453 39.3307 84.788 39.316 84.8333 39.316C84.8787 39.316 84.9147 39.3307 84.9413 39.36C84.968 39.3893 84.9813 39.4307 84.9813 39.484V43.008C84.9813 43.192 85.0187 43.332 85.0933 43.428C85.1707 43.524 85.276 43.572 85.4093 43.572C85.508 43.572 85.584 43.556 85.6373 43.524C85.6933 43.4893 85.736 43.4507 85.7653 43.408C85.7973 43.3627 85.8267 43.324 85.8533 43.292C85.8827 43.26 85.9187 43.244 85.9613 43.244C85.996 43.244 86.0213 43.2547 86.0373 43.276C86.056 43.2973 86.0653 43.3333 86.0653 43.384C86.0653 43.4987 86.024 43.608 85.9413 43.712C85.8587 43.816 85.744 43.9013 85.5973 43.968C85.4533 44.0347 85.2867 44.068 85.0973 44.068C84.804 44.068 84.5693 43.992 84.3933 43.84C84.22 43.6853 84.1333 43.4533 84.1333 43.144V40.804C84.1333 40.7373 84.12 40.6867 84.0933 40.652C84.0667 40.6173 84.0187 40.5907 83.9493 40.572ZM84.6013 40.556V40.236H85.8613C85.9173 40.236 85.96 40.2467 85.9893 40.268C86.0187 40.2867 86.0333 40.3173 86.0333 40.36C86.0333 40.416 86.004 40.4627 85.9453 40.5C85.8893 40.5373 85.8 40.556 85.6773 40.556H84.6013ZM88.475 44.048H88.191C88.1244 44.048 88.0657 44.032 88.015 44C87.967 43.9653 87.9284 43.908 87.899 43.828L86.867 40.812C86.8324 40.7107 86.799 40.644 86.767 40.612C86.735 40.5773 86.695 40.5547 86.647 40.544L86.499 40.516C86.4457 40.5 86.4084 40.4813 86.387 40.46C86.3684 40.4387 86.359 40.4093 86.359 40.372C86.359 40.3293 86.375 40.296 86.407 40.272C86.439 40.248 86.483 40.236 86.539 40.236H88.091C88.147 40.236 88.191 40.248 88.223 40.272C88.255 40.2933 88.271 40.3253 88.271 40.368C88.271 40.4053 88.259 40.436 88.235 40.46C88.2137 40.4813 88.175 40.4987 88.119 40.512L87.955 40.54C87.8484 40.556 87.7857 40.592 87.767 40.648C87.7484 40.7013 87.7657 40.8093 87.819 40.972L88.667 43.56L88.483 43.696L89.479 40.768L89.771 40.988L88.763 43.852C88.7364 43.9267 88.6964 43.9773 88.643 44.004C88.5924 44.0333 88.5364 44.048 88.475 44.048ZM90.947 44.048H90.667C90.6084 44.048 90.5524 44.0307 90.499 43.996C90.4457 43.9613 90.4057 43.9053 90.379 43.828L89.351 40.776C89.3217 40.6907 89.2924 40.6333 89.263 40.604C89.2337 40.5747 89.195 40.5547 89.147 40.544L88.991 40.516C88.9404 40.5 88.9044 40.4813 88.883 40.46C88.8644 40.4387 88.855 40.408 88.855 40.368C88.855 40.28 88.915 40.236 89.035 40.236H90.511C90.631 40.236 90.691 40.2813 90.691 40.372C90.691 40.4093 90.679 40.44 90.655 40.464C90.6337 40.4853 90.5977 40.5 90.547 40.508L90.359 40.536C90.2844 40.5467 90.239 40.5813 90.223 40.64C90.2097 40.6987 90.2257 40.7973 90.271 40.936L91.123 43.572L90.943 43.712L91.815 41.016C91.871 40.8427 91.8897 40.7253 91.871 40.664C91.855 40.6 91.7884 40.5587 91.671 40.54L91.507 40.512C91.451 40.4987 91.411 40.4813 91.387 40.46C91.363 40.4387 91.351 40.408 91.351 40.368C91.351 40.3253 91.367 40.2933 91.399 40.272C91.431 40.248 91.475 40.236 91.531 40.236H92.599C92.6524 40.236 92.695 40.248 92.727 40.272C92.759 40.296 92.775 40.3293 92.775 40.372C92.775 40.404 92.7644 40.432 92.743 40.456C92.7244 40.48 92.687 40.4987 92.631 40.512L92.483 40.536C92.4324 40.5467 92.3884 40.58 92.351 40.636C92.3137 40.6893 92.271 40.788 92.223 40.932L91.231 43.844C91.2044 43.9213 91.1644 43.9747 91.111 44.004C91.0604 44.0333 91.0057 44.048 90.947 44.048ZM95.5095 43.504V43.424L95.4575 43.4V41.116C95.4575 40.8867 95.3988 40.7107 95.2815 40.588C95.1668 40.4653 95.0028 40.404 94.7895 40.404C94.5868 40.404 94.4348 40.4453 94.3335 40.528C94.2321 40.6107 94.1815 40.7107 94.1815 40.828V41.144C94.1815 41.272 94.1388 41.3707 94.0535 41.44C93.9708 41.5093 93.8548 41.544 93.7055 41.544C93.5748 41.544 93.4748 41.5107 93.4055 41.444C93.3361 41.3747 93.3015 41.284 93.3015 41.172C93.3015 41.0067 93.3655 40.8467 93.4935 40.692C93.6241 40.5373 93.8121 40.4093 94.0575 40.308C94.3028 40.2067 94.6001 40.156 94.9495 40.156C95.4055 40.156 95.7441 40.2547 95.9655 40.452C96.1868 40.6467 96.2975 40.908 96.2975 41.236V43.4C96.2975 43.4853 96.3135 43.548 96.3455 43.588C96.3801 43.628 96.4268 43.648 96.4855 43.648C96.5521 43.648 96.5988 43.6333 96.6255 43.604C96.6548 43.572 96.6801 43.5413 96.7015 43.512C96.7148 43.496 96.7281 43.4827 96.7415 43.472C96.7575 43.4587 96.7761 43.452 96.7975 43.452C96.8268 43.452 96.8481 43.4627 96.8615 43.484C96.8748 43.5027 96.8815 43.5293 96.8815 43.564C96.8815 43.6413 96.8548 43.7213 96.8015 43.804C96.7481 43.884 96.6708 43.952 96.5695 44.008C96.4681 44.064 96.3415 44.092 96.1895 44.092C95.9788 44.092 95.8121 44.0427 95.6895 43.944C95.5695 43.8427 95.5095 43.696 95.5095 43.504ZM93.1215 43.168C93.1215 42.8507 93.2628 42.5907 93.5455 42.388C93.8308 42.1853 94.2241 42.084 94.7255 42.084C94.9068 42.084 95.0735 42.1013 95.2255 42.136C95.3775 42.168 95.5121 42.2107 95.6295 42.264L95.5655 42.484C95.4535 42.4387 95.3388 42.4013 95.2215 42.372C95.1068 42.34 94.9801 42.324 94.8415 42.324C94.5775 42.324 94.3708 42.3867 94.2215 42.512C94.0721 42.6373 93.9975 42.8093 93.9975 43.028C93.9975 43.244 94.0575 43.4093 94.1775 43.524C94.3001 43.636 94.4561 43.692 94.6455 43.692C94.8241 43.692 94.9961 43.652 95.1615 43.572C95.3268 43.4893 95.4695 43.3733 95.5895 43.224L95.6735 43.412C95.5161 43.628 95.3121 43.796 95.0615 43.916C94.8135 44.0333 94.5495 44.092 94.2695 44.092C93.9308 44.092 93.6548 44.0093 93.4415 43.844C93.2281 43.676 93.1215 43.4507 93.1215 43.168ZM98.6248 41.908C98.6248 41.5293 98.6808 41.2093 98.7928 40.948C98.9048 40.6867 99.0502 40.4893 99.2288 40.356C99.4102 40.22 99.6022 40.152 99.8048 40.152C100.048 40.152 100.236 40.2187 100.369 40.352C100.505 40.4853 100.573 40.6707 100.573 40.908C100.573 41.092 100.533 41.232 100.453 41.328C100.376 41.4213 100.274 41.468 100.149 41.468C100.024 41.468 99.9262 41.4333 99.8568 41.364C99.7875 41.292 99.7528 41.1933 99.7528 41.068V40.932C99.7502 40.8413 99.7275 40.7747 99.6848 40.732C99.6448 40.6867 99.5755 40.664 99.4768 40.664C99.3622 40.664 99.2502 40.7107 99.1408 40.804C99.0315 40.8947 98.9422 41.032 98.8728 41.216C98.8035 41.3973 98.7688 41.628 98.7688 41.908H98.6248ZM98.7208 40.396L98.7688 41.324V43.44C98.7688 43.5093 98.7835 43.5613 98.8128 43.596C98.8448 43.6307 98.8982 43.6533 98.9728 43.664L99.3328 43.716C99.3888 43.724 99.4302 43.74 99.4568 43.764C99.4862 43.788 99.5008 43.8213 99.5008 43.864C99.5008 43.9067 99.4848 43.94 99.4528 43.964C99.4208 43.988 99.3742 44 99.3128 44H97.6128C97.5515 44 97.5062 43.988 97.4768 43.964C97.4475 43.94 97.4328 43.9067 97.4328 43.864C97.4328 43.832 97.4435 43.804 97.4648 43.78C97.4888 43.756 97.5248 43.7373 97.5728 43.724L97.7608 43.68C97.8142 43.6667 97.8542 43.6427 97.8808 43.608C97.9075 43.5707 97.9208 43.516 97.9208 43.444V40.976C97.9208 40.9147 97.9102 40.8707 97.8888 40.844C97.8702 40.8147 97.8368 40.7973 97.7888 40.792L97.5208 40.78C97.4728 40.7747 97.4382 40.7627 97.4168 40.744C97.3982 40.7227 97.3888 40.696 97.3888 40.664C97.3888 40.6293 97.4008 40.6013 97.4248 40.58C97.4488 40.556 97.4902 40.5333 97.5488 40.512L98.1968 40.28C98.3035 40.2427 98.3822 40.2173 98.4328 40.204C98.4862 40.1907 98.5275 40.184 98.5568 40.184C98.6075 40.184 98.6462 40.2 98.6728 40.232C98.6995 40.264 98.7155 40.3187 98.7208 40.396ZM104.562 41.656C104.562 41.7813 104.524 41.8773 104.45 41.944C104.378 42.008 104.271 42.04 104.13 42.04H101.574V41.78H103.498C103.631 41.78 103.698 41.7213 103.698 41.604C103.698 41.2493 103.62 40.972 103.466 40.772C103.311 40.572 103.104 40.472 102.846 40.472C102.643 40.472 102.464 40.5307 102.31 40.648C102.155 40.7627 102.034 40.9267 101.946 41.14C101.858 41.3507 101.814 41.5987 101.814 41.884C101.814 42.4147 101.94 42.8173 102.194 43.092C102.45 43.364 102.784 43.5 103.198 43.5C103.462 43.5 103.691 43.4413 103.886 43.324C104.08 43.2067 104.218 43.0507 104.298 42.856C104.332 42.8107 104.36 42.78 104.382 42.764C104.406 42.7453 104.432 42.736 104.462 42.736C104.499 42.736 104.526 42.752 104.542 42.784C104.558 42.816 104.566 42.8533 104.566 42.896C104.55 43.1147 104.47 43.3147 104.326 43.496C104.182 43.6773 103.99 43.8227 103.75 43.932C103.512 44.0387 103.242 44.092 102.938 44.092C102.562 44.092 102.23 44.0133 101.942 43.856C101.656 43.6987 101.434 43.4773 101.274 43.192C101.114 42.9067 101.034 42.572 101.034 42.188C101.034 41.7987 101.111 41.4507 101.266 41.144C101.42 40.8373 101.642 40.596 101.93 40.42C102.218 40.2413 102.56 40.152 102.958 40.152C103.286 40.152 103.57 40.216 103.81 40.344C104.05 40.472 104.235 40.6493 104.366 40.876C104.496 41.1 104.562 41.36 104.562 41.656ZM108.29 40.396V40.884L108.322 40.952V45.304C108.322 45.3787 108.335 45.4347 108.362 45.472C108.389 45.5093 108.429 45.5333 108.482 45.544L108.754 45.584C108.802 45.5973 108.838 45.616 108.862 45.64C108.886 45.664 108.898 45.6933 108.898 45.728C108.898 45.7707 108.882 45.804 108.85 45.828C108.821 45.852 108.774 45.864 108.71 45.864H107.166C107.105 45.864 107.059 45.852 107.03 45.828C107.001 45.804 106.986 45.7707 106.986 45.728C106.986 45.696 106.997 45.668 107.018 45.644C107.042 45.62 107.078 45.6013 107.126 45.588L107.314 45.544C107.367 45.5307 107.407 45.5053 107.434 45.468C107.461 45.4333 107.474 45.38 107.474 45.308V40.968C107.474 40.9067 107.463 40.8627 107.442 40.836C107.423 40.8093 107.39 40.7933 107.342 40.788L107.074 40.776C107.026 40.768 106.991 40.7547 106.97 40.736C106.951 40.7147 106.942 40.6893 106.942 40.66C106.942 40.6253 106.953 40.5973 106.974 40.576C106.998 40.5547 107.041 40.532 107.102 40.508L107.73 40.272C107.813 40.24 107.881 40.2173 107.934 40.204C107.987 40.1907 108.034 40.184 108.074 40.184C108.146 40.184 108.199 40.2027 108.234 40.24C108.271 40.2773 108.29 40.3293 108.29 40.396ZM108.122 41.356L107.99 41.144C108.195 40.8293 108.434 40.5853 108.706 40.412C108.981 40.2387 109.278 40.152 109.598 40.152C109.915 40.152 110.197 40.2333 110.442 40.396C110.69 40.556 110.885 40.7787 111.026 41.064C111.17 41.3467 111.242 41.6707 111.242 42.036C111.242 42.4573 111.158 42.8227 110.99 43.132C110.825 43.4387 110.601 43.676 110.318 43.844C110.035 44.0093 109.721 44.092 109.374 44.092C109.057 44.092 108.773 44.0147 108.522 43.86C108.271 43.7027 108.07 43.4787 107.918 43.188L108.118 42.984C108.257 43.2267 108.422 43.4107 108.614 43.536C108.809 43.6613 109.015 43.724 109.234 43.724C109.447 43.724 109.638 43.6653 109.806 43.548C109.974 43.4307 110.106 43.2547 110.202 43.02C110.301 42.7827 110.35 42.488 110.35 42.136C110.35 41.7973 110.303 41.5147 110.21 41.288C110.117 41.0613 109.989 40.8907 109.826 40.776C109.663 40.6587 109.477 40.6 109.266 40.6C109.05 40.6 108.845 40.6627 108.65 40.788C108.455 40.9133 108.279 41.1027 108.122 41.356ZM114.369 43.504V43.424L114.317 43.4V41.116C114.317 40.8867 114.258 40.7107 114.141 40.588C114.026 40.4653 113.862 40.404 113.649 40.404C113.446 40.404 113.294 40.4453 113.193 40.528C113.092 40.6107 113.041 40.7107 113.041 40.828V41.144C113.041 41.272 112.998 41.3707 112.913 41.44C112.83 41.5093 112.714 41.544 112.565 41.544C112.434 41.544 112.334 41.5107 112.265 41.444C112.196 41.3747 112.161 41.284 112.161 41.172C112.161 41.0067 112.225 40.8467 112.353 40.692C112.484 40.5373 112.672 40.4093 112.917 40.308C113.162 40.2067 113.46 40.156 113.809 40.156C114.265 40.156 114.604 40.2547 114.825 40.452C115.046 40.6467 115.157 40.908 115.157 41.236V43.4C115.157 43.4853 115.173 43.548 115.205 43.588C115.24 43.628 115.286 43.648 115.345 43.648C115.412 43.648 115.458 43.6333 115.485 43.604C115.514 43.572 115.54 43.5413 115.561 43.512C115.574 43.496 115.588 43.4827 115.601 43.472C115.617 43.4587 115.636 43.452 115.657 43.452C115.686 43.452 115.708 43.4627 115.721 43.484C115.734 43.5027 115.741 43.5293 115.741 43.564C115.741 43.6413 115.714 43.7213 115.661 43.804C115.608 43.884 115.53 43.952 115.429 44.008C115.328 44.064 115.201 44.092 115.049 44.092C114.838 44.092 114.672 44.0427 114.549 43.944C114.429 43.8427 114.369 43.696 114.369 43.504ZM111.981 43.168C111.981 42.8507 112.122 42.5907 112.405 42.388C112.69 42.1853 113.084 42.084 113.585 42.084C113.766 42.084 113.933 42.1013 114.085 42.136C114.237 42.168 114.372 42.2107 114.489 42.264L114.425 42.484C114.313 42.4387 114.198 42.4013 114.081 42.372C113.966 42.34 113.84 42.324 113.701 42.324C113.437 42.324 113.23 42.3867 113.081 42.512C112.932 42.6373 112.857 42.8093 112.857 43.028C112.857 43.244 112.917 43.4093 113.037 43.524C113.16 43.636 113.316 43.692 113.505 43.692C113.684 43.692 113.856 43.652 114.021 43.572C114.186 43.4893 114.329 43.3733 114.449 43.224L114.533 43.412C114.376 43.628 114.172 43.796 113.921 43.916C113.673 44.0333 113.409 44.092 113.129 44.092C112.79 44.092 112.514 44.0093 112.301 43.844C112.088 43.676 111.981 43.4507 111.981 43.168ZM117.484 41.908C117.484 41.5293 117.54 41.2093 117.652 40.948C117.764 40.6867 117.91 40.4893 118.088 40.356C118.27 40.22 118.462 40.152 118.664 40.152C118.907 40.152 119.095 40.2187 119.228 40.352C119.364 40.4853 119.432 40.6707 119.432 40.908C119.432 41.092 119.392 41.232 119.312 41.328C119.235 41.4213 119.134 41.468 119.008 41.468C118.883 41.468 118.786 41.4333 118.716 41.364C118.647 41.292 118.612 41.1933 118.612 41.068V40.932C118.61 40.8413 118.587 40.7747 118.544 40.732C118.504 40.6867 118.435 40.664 118.336 40.664C118.222 40.664 118.11 40.7107 118 40.804C117.891 40.8947 117.802 41.032 117.732 41.216C117.663 41.3973 117.628 41.628 117.628 41.908H117.484ZM117.58 40.396L117.628 41.324V43.44C117.628 43.5093 117.643 43.5613 117.672 43.596C117.704 43.6307 117.758 43.6533 117.832 43.664L118.192 43.716C118.248 43.724 118.29 43.74 118.316 43.764C118.346 43.788 118.36 43.8213 118.36 43.864C118.36 43.9067 118.344 43.94 118.312 43.964C118.28 43.988 118.234 44 118.172 44H116.472C116.411 44 116.366 43.988 116.336 43.964C116.307 43.94 116.292 43.9067 116.292 43.864C116.292 43.832 116.303 43.804 116.324 43.78C116.348 43.756 116.384 43.7373 116.432 43.724L116.62 43.68C116.674 43.6667 116.714 43.6427 116.74 43.608C116.767 43.5707 116.78 43.516 116.78 43.444V40.976C116.78 40.9147 116.77 40.8707 116.748 40.844C116.73 40.8147 116.696 40.7973 116.648 40.792L116.38 40.78C116.332 40.7747 116.298 40.7627 116.276 40.744C116.258 40.7227 116.248 40.696 116.248 40.664C116.248 40.6293 116.26 40.6013 116.284 40.58C116.308 40.556 116.35 40.5333 116.408 40.512L117.056 40.28C117.163 40.2427 117.242 40.2173 117.292 40.204C117.346 40.1907 117.387 40.184 117.416 40.184C117.467 40.184 117.506 40.2 117.532 40.232C117.559 40.264 117.575 40.3187 117.58 40.396ZM122.361 43.504V43.424L122.309 43.4V41.116C122.309 40.8867 122.25 40.7107 122.133 40.588C122.018 40.4653 121.854 40.404 121.641 40.404C121.438 40.404 121.286 40.4453 121.185 40.528C121.084 40.6107 121.033 40.7107 121.033 40.828V41.144C121.033 41.272 120.99 41.3707 120.905 41.44C120.822 41.5093 120.706 41.544 120.557 41.544C120.426 41.544 120.326 41.5107 120.257 41.444C120.188 41.3747 120.153 41.284 120.153 41.172C120.153 41.0067 120.217 40.8467 120.345 40.692C120.476 40.5373 120.664 40.4093 120.909 40.308C121.154 40.2067 121.452 40.156 121.801 40.156C122.257 40.156 122.596 40.2547 122.817 40.452C123.038 40.6467 123.149 40.908 123.149 41.236V43.4C123.149 43.4853 123.165 43.548 123.197 43.588C123.232 43.628 123.278 43.648 123.337 43.648C123.404 43.648 123.45 43.6333 123.477 43.604C123.506 43.572 123.532 43.5413 123.553 43.512C123.566 43.496 123.58 43.4827 123.593 43.472C123.609 43.4587 123.628 43.452 123.649 43.452C123.678 43.452 123.7 43.4627 123.713 43.484C123.726 43.5027 123.733 43.5293 123.733 43.564C123.733 43.6413 123.706 43.7213 123.653 43.804C123.6 43.884 123.522 43.952 123.421 44.008C123.32 44.064 123.193 44.092 123.041 44.092C122.83 44.092 122.664 44.0427 122.541 43.944C122.421 43.8427 122.361 43.696 122.361 43.504ZM119.973 43.168C119.973 42.8507 120.114 42.5907 120.397 42.388C120.682 42.1853 121.076 42.084 121.577 42.084C121.758 42.084 121.925 42.1013 122.077 42.136C122.229 42.168 122.364 42.2107 122.481 42.264L122.417 42.484C122.305 42.4387 122.19 42.4013 122.073 42.372C121.958 42.34 121.832 42.324 121.693 42.324C121.429 42.324 121.222 42.3867 121.073 42.512C120.924 42.6373 120.849 42.8093 120.849 43.028C120.849 43.244 120.909 43.4093 121.029 43.524C121.152 43.636 121.308 43.692 121.497 43.692C121.676 43.692 121.848 43.652 122.013 43.572C122.178 43.4893 122.321 43.3733 122.441 43.224L122.525 43.412C122.368 43.628 122.164 43.796 121.913 43.916C121.665 44.0333 121.401 44.092 121.121 44.092C120.782 44.092 120.506 44.0093 120.293 43.844C120.08 43.676 119.973 43.4507 119.973 43.168ZM127.425 38.312V43.44C127.425 43.5147 127.438 43.5707 127.465 43.608C127.492 43.6427 127.532 43.6667 127.585 43.68L127.765 43.72C127.813 43.736 127.848 43.756 127.869 43.78C127.893 43.8013 127.905 43.8293 127.905 43.864C127.905 43.9067 127.89 43.94 127.861 43.964C127.832 43.988 127.785 44 127.721 44H126.269C126.208 44 126.162 43.988 126.133 43.964C126.104 43.94 126.089 43.9067 126.089 43.864C126.089 43.832 126.1 43.804 126.121 43.78C126.145 43.756 126.181 43.7373 126.229 43.724L126.417 43.68C126.47 43.6667 126.51 43.6427 126.537 43.608C126.564 43.5707 126.577 43.516 126.577 43.444V38.884C126.577 38.8227 126.566 38.7787 126.545 38.752C126.526 38.7227 126.493 38.7053 126.445 38.7L126.177 38.688C126.129 38.6827 126.094 38.6707 126.073 38.652C126.054 38.6307 126.045 38.604 126.045 38.572C126.045 38.5373 126.056 38.5093 126.077 38.488C126.101 38.464 126.144 38.4413 126.205 38.42L126.865 38.188C126.953 38.156 127.022 38.1333 127.073 38.12C127.126 38.1067 127.172 38.1 127.209 38.1C127.281 38.1 127.334 38.1187 127.369 38.156C127.406 38.1933 127.425 38.2453 127.425 38.312ZM130.97 43.504V43.424L130.918 43.4V41.116C130.918 40.8867 130.86 40.7107 130.742 40.588C130.628 40.4653 130.464 40.404 130.25 40.404C130.048 40.404 129.896 40.4453 129.794 40.528C129.693 40.6107 129.642 40.7107 129.642 40.828V41.144C129.642 41.272 129.6 41.3707 129.514 41.44C129.432 41.5093 129.316 41.544 129.166 41.544C129.036 41.544 128.936 41.5107 128.866 41.444C128.797 41.3747 128.762 41.284 128.762 41.172C128.762 41.0067 128.826 40.8467 128.954 40.692C129.085 40.5373 129.273 40.4093 129.518 40.308C129.764 40.2067 130.061 40.156 130.41 40.156C130.866 40.156 131.205 40.2547 131.426 40.452C131.648 40.6467 131.758 40.908 131.758 41.236V43.4C131.758 43.4853 131.774 43.548 131.806 43.588C131.841 43.628 131.888 43.648 131.946 43.648C132.013 43.648 132.06 43.6333 132.086 43.604C132.116 43.572 132.141 43.5413 132.162 43.512C132.176 43.496 132.189 43.4827 132.202 43.472C132.218 43.4587 132.237 43.452 132.258 43.452C132.288 43.452 132.309 43.4627 132.322 43.484C132.336 43.5027 132.342 43.5293 132.342 43.564C132.342 43.6413 132.316 43.7213 132.262 43.804C132.209 43.884 132.132 43.952 132.03 44.008C131.929 44.064 131.802 44.092 131.65 44.092C131.44 44.092 131.273 44.0427 131.15 43.944C131.03 43.8427 130.97 43.696 130.97 43.504ZM128.582 43.168C128.582 42.8507 128.724 42.5907 129.006 42.388C129.292 42.1853 129.685 42.084 130.186 42.084C130.368 42.084 130.534 42.1013 130.686 42.136C130.838 42.168 130.973 42.2107 131.09 42.264L131.026 42.484C130.914 42.4387 130.8 42.4013 130.682 42.372C130.568 42.34 130.441 42.324 130.302 42.324C130.038 42.324 129.832 42.3867 129.682 42.512C129.533 42.6373 129.458 42.8093 129.458 43.028C129.458 43.244 129.518 43.4093 129.638 43.524C129.761 43.636 129.917 43.692 130.106 43.692C130.285 43.692 130.457 43.652 130.622 43.572C130.788 43.4893 130.93 43.3733 131.05 43.224L131.134 43.412C130.977 43.628 130.773 43.796 130.522 43.916C130.274 44.0333 130.01 44.092 129.73 44.092C129.392 44.092 129.116 44.0093 128.902 43.844C128.689 43.676 128.582 43.4507 128.582 43.168ZM138.13 41.196C138.13 41.324 138.088 41.4307 138.002 41.516C137.92 41.6013 137.81 41.644 137.674 41.644C137.538 41.644 137.433 41.6053 137.358 41.528C137.286 41.4507 137.25 41.3493 137.25 41.224V41.104C137.25 40.9147 137.185 40.7627 137.054 40.648C136.924 40.5307 136.744 40.472 136.514 40.472C136.309 40.472 136.126 40.5307 135.966 40.648C135.806 40.7627 135.68 40.9267 135.586 41.14C135.496 41.3507 135.45 41.5987 135.45 41.884C135.45 42.2307 135.51 42.5253 135.63 42.768C135.75 43.008 135.914 43.1907 136.122 43.316C136.33 43.4387 136.568 43.5 136.834 43.5C137.088 43.5 137.306 43.4413 137.49 43.324C137.677 43.2067 137.81 43.0533 137.89 42.864C137.925 42.8187 137.954 42.788 137.978 42.772C138.002 42.7533 138.029 42.744 138.058 42.744C138.096 42.744 138.121 42.76 138.134 42.792C138.15 42.824 138.158 42.86 138.158 42.9C138.14 43.1187 138.061 43.3187 137.922 43.5C137.784 43.6813 137.598 43.8253 137.366 43.932C137.134 44.0387 136.87 44.092 136.574 44.092C136.198 44.092 135.866 44.0133 135.578 43.856C135.293 43.6987 135.07 43.4773 134.91 43.192C134.75 42.9067 134.67 42.572 134.67 42.188C134.67 41.8067 134.752 41.4627 134.914 41.156C135.077 40.8493 135.305 40.6053 135.598 40.424C135.894 40.2427 136.24 40.152 136.634 40.152C136.944 40.152 137.21 40.2013 137.434 40.3C137.658 40.396 137.83 40.524 137.95 40.684C138.07 40.8413 138.13 41.012 138.13 41.196ZM140.776 40.156C141.168 40.156 141.514 40.24 141.812 40.408C142.114 40.5733 142.348 40.8053 142.516 41.104C142.687 41.4 142.772 41.7413 142.772 42.128C142.772 42.504 142.686 42.84 142.512 43.136C142.342 43.432 142.104 43.6653 141.8 43.836C141.499 44.0067 141.148 44.092 140.748 44.092C140.356 44.092 140.01 44.008 139.708 43.84C139.41 43.672 139.175 43.44 139.004 43.144C138.836 42.8453 138.752 42.504 138.752 42.12C138.752 41.7387 138.838 41.4013 139.008 41.108C139.182 40.812 139.419 40.58 139.72 40.412C140.024 40.2413 140.376 40.156 140.776 40.156ZM141.06 43.744C141.282 43.712 141.462 43.6213 141.6 43.472C141.742 43.32 141.835 43.1173 141.88 42.864C141.928 42.608 141.923 42.308 141.864 41.964C141.806 41.6173 141.71 41.3307 141.576 41.104C141.443 40.8747 141.282 40.7093 141.092 40.608C140.903 40.504 140.694 40.4693 140.464 40.504C140.243 40.536 140.062 40.628 139.92 40.78C139.782 40.9293 139.688 41.1307 139.64 41.384C139.595 41.6373 139.602 41.9373 139.66 42.284C139.719 42.628 139.815 42.9147 139.948 43.144C140.082 43.3733 140.243 43.5387 140.432 43.64C140.622 43.7413 140.831 43.776 141.06 43.744ZM144.808 40.396V43.44C144.808 43.5147 144.821 43.5707 144.848 43.608C144.875 43.6427 144.915 43.6667 144.968 43.68L145.144 43.724C145.229 43.7507 145.272 43.796 145.272 43.86C145.272 43.9533 145.209 44 145.084 44H143.652C143.591 44 143.545 43.988 143.516 43.964C143.487 43.94 143.472 43.9067 143.472 43.864C143.472 43.832 143.483 43.804 143.504 43.78C143.528 43.756 143.564 43.7373 143.612 43.724L143.8 43.68C143.853 43.6667 143.893 43.6427 143.92 43.608C143.947 43.5707 143.96 43.516 143.96 43.444V40.968C143.96 40.9067 143.949 40.8627 143.928 40.836C143.909 40.8093 143.876 40.7933 143.828 40.788L143.56 40.776C143.512 40.768 143.477 40.7547 143.456 40.736C143.437 40.7147 143.428 40.6893 143.428 40.66C143.428 40.6253 143.439 40.596 143.46 40.572C143.484 40.548 143.527 40.5253 143.588 40.504L144.248 40.272C144.331 40.24 144.399 40.2173 144.452 40.204C144.508 40.1907 144.557 40.184 144.6 40.184C144.669 40.184 144.721 40.2027 144.756 40.24C144.791 40.2773 144.808 40.3293 144.808 40.396ZM144.692 41.248L144.532 41.088L144.708 40.936C145.028 40.648 145.308 40.4453 145.548 40.328C145.788 40.2107 146.019 40.152 146.24 40.152C146.579 40.152 146.851 40.2587 147.056 40.472C147.264 40.6853 147.368 40.9733 147.368 41.336V43.428C147.368 43.5053 147.383 43.564 147.412 43.604C147.444 43.6413 147.488 43.668 147.544 43.684L147.712 43.724C147.757 43.7373 147.791 43.756 147.812 43.78C147.836 43.804 147.848 43.832 147.848 43.864C147.848 43.9067 147.833 43.94 147.804 43.964C147.777 43.988 147.732 44 147.668 44H146.232C146.107 44 146.044 43.9533 146.044 43.86C146.044 43.796 146.087 43.7507 146.172 43.724L146.356 43.68C146.415 43.6667 146.456 43.64 146.48 43.6C146.507 43.56 146.52 43.5027 146.52 43.428V41.468C146.52 41.2013 146.453 41.0013 146.32 40.868C146.189 40.7347 146.015 40.668 145.796 40.668C145.663 40.668 145.517 40.7027 145.36 40.772C145.205 40.8413 145.04 40.9507 144.864 41.1L144.692 41.248ZM149.872 40.456C149.672 40.456 149.513 40.508 149.396 40.612C149.281 40.7133 149.224 40.8467 149.224 41.012C149.224 41.116 149.248 41.2093 149.296 41.292C149.344 41.372 149.431 41.4467 149.556 41.516C149.681 41.5827 149.86 41.6453 150.092 41.704C150.463 41.7893 150.752 41.8947 150.96 42.02C151.171 42.1427 151.319 42.2827 151.404 42.44C151.489 42.5973 151.532 42.772 151.532 42.964C151.532 43.3027 151.409 43.576 151.164 43.784C150.921 43.9893 150.573 44.092 150.12 44.092C149.955 44.092 149.817 44.0773 149.708 44.048C149.601 44.0187 149.512 43.9893 149.44 43.96C149.368 43.9307 149.304 43.916 149.248 43.916C149.195 43.916 149.153 43.932 149.124 43.964C149.095 43.9933 149.067 44.0227 149.04 44.052C149.013 44.0813 148.976 44.096 148.928 44.096C148.891 44.096 148.861 44.084 148.84 44.06C148.819 44.0387 148.799 43.9987 148.78 43.94L148.484 43.104C148.46 43.0293 148.452 42.968 148.46 42.92C148.471 42.8693 148.501 42.8347 148.552 42.816C148.603 42.7973 148.647 42.7987 148.684 42.82C148.724 42.8387 148.759 42.8733 148.788 42.924C148.905 43.1427 149.032 43.316 149.168 43.444C149.307 43.5693 149.452 43.6587 149.604 43.712C149.759 43.7653 149.916 43.792 150.076 43.792C150.329 43.792 150.519 43.7387 150.644 43.632C150.772 43.5253 150.836 43.384 150.836 43.208C150.836 43.104 150.809 43.0093 150.756 42.924C150.703 42.836 150.605 42.7547 150.464 42.68C150.323 42.6053 150.121 42.536 149.86 42.472C149.535 42.3947 149.275 42.3 149.08 42.188C148.888 42.076 148.749 41.9413 148.664 41.784C148.581 41.6267 148.54 41.444 148.54 41.236C148.54 41.0227 148.593 40.8347 148.7 40.672C148.807 40.5093 148.957 40.3827 149.152 40.292C149.347 40.1987 149.575 40.152 149.836 40.152C150.004 40.152 150.14 40.168 150.244 40.2C150.351 40.232 150.437 40.2653 150.504 40.3C150.573 40.332 150.635 40.348 150.688 40.348C150.747 40.348 150.792 40.332 150.824 40.3C150.856 40.2653 150.885 40.232 150.912 40.2C150.939 40.168 150.975 40.152 151.02 40.152C151.052 40.152 151.079 40.164 151.1 40.188C151.124 40.2093 151.141 40.2467 151.152 40.3L151.38 41.096C151.399 41.176 151.405 41.2427 151.4 41.296C151.395 41.3467 151.365 41.3827 151.312 41.404C151.264 41.4227 151.221 41.4187 151.184 41.392C151.147 41.3653 151.108 41.32 151.068 41.256C150.916 40.9653 150.735 40.76 150.524 40.64C150.313 40.5173 150.096 40.456 149.872 40.456ZM152.426 40.572L152.218 40.516C152.149 40.4973 152.101 40.476 152.074 40.452C152.05 40.4253 152.038 40.396 152.038 40.364C152.038 40.3213 152.053 40.2893 152.082 40.268C152.111 40.2467 152.151 40.236 152.202 40.236H152.458C152.53 40.236 152.587 40.2253 152.63 40.204C152.675 40.18 152.714 40.1373 152.746 40.076L153.062 39.496C153.102 39.432 153.142 39.3867 153.182 39.36C153.222 39.3307 153.265 39.316 153.31 39.316C153.355 39.316 153.391 39.3307 153.418 39.36C153.445 39.3893 153.458 39.4307 153.458 39.484V43.008C153.458 43.192 153.495 43.332 153.57 43.428C153.647 43.524 153.753 43.572 153.886 43.572C153.985 43.572 154.061 43.556 154.114 43.524C154.17 43.4893 154.213 43.4507 154.242 43.408C154.274 43.3627 154.303 43.324 154.33 43.292C154.359 43.26 154.395 43.244 154.438 43.244C154.473 43.244 154.498 43.2547 154.514 43.276C154.533 43.2973 154.542 43.3333 154.542 43.384C154.542 43.4987 154.501 43.608 154.418 43.712C154.335 43.816 154.221 43.9013 154.074 43.968C153.93 44.0347 153.763 44.068 153.574 44.068C153.281 44.068 153.046 43.992 152.87 43.84C152.697 43.6853 152.61 43.4533 152.61 43.144V40.804C152.61 40.7373 152.597 40.6867 152.57 40.652C152.543 40.6173 152.495 40.5907 152.426 40.572ZM153.078 40.556V40.236H154.338C154.394 40.236 154.437 40.2467 154.466 40.268C154.495 40.2867 154.51 40.3173 154.51 40.36C154.51 40.416 154.481 40.4627 154.422 40.5C154.366 40.5373 154.277 40.556 154.154 40.556H153.078ZM156.344 41.908C156.344 41.5293 156.4 41.2093 156.512 40.948C156.624 40.6867 156.769 40.4893 156.948 40.356C157.129 40.22 157.321 40.152 157.524 40.152C157.766 40.152 157.954 40.2187 158.088 40.352C158.224 40.4853 158.292 40.6707 158.292 40.908C158.292 41.092 158.252 41.232 158.172 41.328C158.094 41.4213 157.993 41.468 157.868 41.468C157.742 41.468 157.645 41.4333 157.576 41.364C157.506 41.292 157.472 41.1933 157.472 41.068V40.932C157.469 40.8413 157.446 40.7747 157.404 40.732C157.364 40.6867 157.294 40.664 157.196 40.664C157.081 40.664 156.969 40.7107 156.86 40.804C156.75 40.8947 156.661 41.032 156.592 41.216C156.522 41.3973 156.488 41.628 156.488 41.908H156.344ZM156.44 40.396L156.488 41.324V43.44C156.488 43.5093 156.502 43.5613 156.532 43.596C156.564 43.6307 156.617 43.6533 156.692 43.664L157.052 43.716C157.108 43.724 157.149 43.74 157.176 43.764C157.205 43.788 157.22 43.8213 157.22 43.864C157.22 43.9067 157.204 43.94 157.172 43.964C157.14 43.988 157.093 44 157.032 44H155.332C155.27 44 155.225 43.988 155.196 43.964C155.166 43.94 155.152 43.9067 155.152 43.864C155.152 43.832 155.162 43.804 155.184 43.78C155.208 43.756 155.244 43.7373 155.292 43.724L155.48 43.68C155.533 43.6667 155.573 43.6427 155.6 43.608C155.626 43.5707 155.64 43.516 155.64 43.444V40.976C155.64 40.9147 155.629 40.8707 155.608 40.844C155.589 40.8147 155.556 40.7973 155.508 40.792L155.24 40.78C155.192 40.7747 155.157 40.7627 155.136 40.744C155.117 40.7227 155.108 40.696 155.108 40.664C155.108 40.6293 155.12 40.6013 155.144 40.58C155.168 40.556 155.209 40.5333 155.268 40.512L155.916 40.28C156.022 40.2427 156.101 40.2173 156.152 40.204C156.205 40.1907 156.246 40.184 156.276 40.184C156.326 40.184 156.365 40.2 156.392 40.232C156.418 40.264 156.434 40.3187 156.44 40.396ZM161.684 43.528V43.272L161.66 43.252V40.972C161.66 40.9107 161.65 40.8667 161.628 40.84C161.607 40.8107 161.574 40.7933 161.528 40.788L161.256 40.776C161.211 40.7707 161.178 40.7587 161.156 40.74C161.138 40.7187 161.128 40.692 161.128 40.66C161.128 40.6253 161.139 40.5973 161.16 40.576C161.184 40.552 161.227 40.5293 161.288 40.508L161.944 40.276C162.03 40.244 162.099 40.2213 162.152 40.208C162.206 40.1947 162.254 40.188 162.296 40.188C162.366 40.188 162.418 40.2067 162.452 40.244C162.487 40.2813 162.504 40.3333 162.504 40.4V43.44C162.504 43.5147 162.518 43.5707 162.544 43.608C162.574 43.6427 162.614 43.6667 162.664 43.68L162.844 43.72C162.892 43.736 162.928 43.756 162.952 43.78C162.976 43.8013 162.988 43.8293 162.988 43.864C162.988 43.9067 162.972 43.94 162.94 43.964C162.911 43.988 162.864 44 162.8 44H162.104C161.976 44 161.874 43.9587 161.796 43.876C161.722 43.7907 161.684 43.6747 161.684 43.528ZM159.156 42.908V40.972C159.156 40.9107 159.146 40.8667 159.124 40.84C159.106 40.8107 159.072 40.7933 159.024 40.788L158.756 40.776C158.708 40.7707 158.674 40.7587 158.652 40.74C158.634 40.7187 158.624 40.692 158.624 40.66C158.624 40.6253 158.635 40.5973 158.656 40.576C158.68 40.552 158.723 40.5293 158.784 40.508L159.444 40.276C159.532 40.244 159.602 40.2213 159.652 40.208C159.706 40.1947 159.751 40.188 159.788 40.188C159.86 40.188 159.914 40.2067 159.948 40.244C159.986 40.2813 160.004 40.3333 160.004 40.4V42.78C160.004 43.0467 160.068 43.2467 160.196 43.38C160.327 43.5107 160.5 43.576 160.716 43.576C160.847 43.576 160.988 43.5413 161.14 43.472C161.295 43.4027 161.46 43.2947 161.636 43.148L161.808 43L161.968 43.16L161.792 43.312C161.475 43.6 161.196 43.8027 160.956 43.92C160.719 44.0347 160.491 44.092 160.272 44.092C159.939 44.092 159.67 43.9853 159.464 43.772C159.259 43.5587 159.156 43.2707 159.156 42.908ZM167.091 41.196C167.091 41.324 167.049 41.4307 166.963 41.516C166.881 41.6013 166.771 41.644 166.635 41.644C166.499 41.644 166.394 41.6053 166.319 41.528C166.247 41.4507 166.211 41.3493 166.211 41.224V41.104C166.211 40.9147 166.146 40.7627 166.015 40.648C165.885 40.5307 165.705 40.472 165.475 40.472C165.27 40.472 165.087 40.5307 164.927 40.648C164.767 40.7627 164.641 40.9267 164.547 41.14C164.457 41.3507 164.411 41.5987 164.411 41.884C164.411 42.2307 164.471 42.5253 164.591 42.768C164.711 43.008 164.875 43.1907 165.083 43.316C165.291 43.4387 165.529 43.5 165.795 43.5C166.049 43.5 166.267 43.4413 166.451 43.324C166.638 43.2067 166.771 43.0533 166.851 42.864C166.886 42.8187 166.915 42.788 166.939 42.772C166.963 42.7533 166.99 42.744 167.019 42.744C167.057 42.744 167.082 42.76 167.095 42.792C167.111 42.824 167.119 42.86 167.119 42.9C167.101 43.1187 167.022 43.3187 166.883 43.5C166.745 43.6813 166.559 43.8253 166.327 43.932C166.095 44.0387 165.831 44.092 165.535 44.092C165.159 44.092 164.827 44.0133 164.539 43.856C164.254 43.6987 164.031 43.4773 163.871 43.192C163.711 42.9067 163.631 42.572 163.631 42.188C163.631 41.8067 163.713 41.4627 163.875 41.156C164.038 40.8493 164.266 40.6053 164.559 40.424C164.855 40.2427 165.201 40.152 165.595 40.152C165.905 40.152 166.171 40.2013 166.395 40.3C166.619 40.396 166.791 40.524 166.911 40.684C167.031 40.8413 167.091 41.012 167.091 41.196ZM171.177 41.196C171.177 41.324 171.135 41.4307 171.049 41.516C170.967 41.6013 170.857 41.644 170.721 41.644C170.585 41.644 170.48 41.6053 170.405 41.528C170.333 41.4507 170.297 41.3493 170.297 41.224V41.104C170.297 40.9147 170.232 40.7627 170.101 40.648C169.971 40.5307 169.791 40.472 169.561 40.472C169.356 40.472 169.173 40.5307 169.013 40.648C168.853 40.7627 168.727 40.9267 168.633 41.14C168.543 41.3507 168.497 41.5987 168.497 41.884C168.497 42.2307 168.557 42.5253 168.677 42.768C168.797 43.008 168.961 43.1907 169.169 43.316C169.377 43.4387 169.615 43.5 169.881 43.5C170.135 43.5 170.353 43.4413 170.537 43.324C170.724 43.2067 170.857 43.0533 170.937 42.864C170.972 42.8187 171.001 42.788 171.025 42.772C171.049 42.7533 171.076 42.744 171.105 42.744C171.143 42.744 171.168 42.76 171.181 42.792C171.197 42.824 171.205 42.86 171.205 42.9C171.187 43.1187 171.108 43.3187 170.969 43.5C170.831 43.6813 170.645 43.8253 170.413 43.932C170.181 44.0387 169.917 44.092 169.621 44.092C169.245 44.092 168.913 44.0133 168.625 43.856C168.34 43.6987 168.117 43.4773 167.957 43.192C167.797 42.9067 167.717 42.572 167.717 42.188C167.717 41.8067 167.799 41.4627 167.961 41.156C168.124 40.8493 168.352 40.6053 168.645 40.424C168.941 40.2427 169.287 40.152 169.681 40.152C169.991 40.152 170.257 40.2013 170.481 40.3C170.705 40.396 170.877 40.524 170.997 40.684C171.117 40.8413 171.177 41.012 171.177 41.196ZM173.167 40.396V43.44C173.167 43.5147 173.181 43.5707 173.207 43.608C173.234 43.6427 173.274 43.6667 173.327 43.68L173.507 43.72C173.555 43.736 173.59 43.756 173.611 43.78C173.635 43.8013 173.647 43.8293 173.647 43.864C173.647 43.9067 173.633 43.94 173.603 43.964C173.574 43.988 173.527 44 173.463 44H172.011C171.95 44 171.905 43.988 171.875 43.964C171.846 43.94 171.831 43.9067 171.831 43.864C171.831 43.832 171.842 43.804 171.863 43.78C171.887 43.756 171.923 43.7373 171.971 43.724L172.159 43.68C172.213 43.6667 172.253 43.6427 172.279 43.608C172.306 43.5707 172.319 43.516 172.319 43.444V40.968C172.319 40.9067 172.309 40.8627 172.287 40.836C172.269 40.8093 172.235 40.7933 172.187 40.788L171.919 40.776C171.871 40.768 171.837 40.7547 171.815 40.736C171.797 40.7147 171.787 40.6893 171.787 40.66C171.787 40.6253 171.798 40.596 171.819 40.572C171.843 40.548 171.886 40.5253 171.947 40.504L172.607 40.272C172.695 40.24 172.765 40.2173 172.815 40.204C172.869 40.1907 172.914 40.184 172.951 40.184C173.023 40.184 173.077 40.2027 173.111 40.24C173.149 40.2773 173.167 40.3293 173.167 40.396ZM172.651 39.44C172.478 39.44 172.337 39.392 172.227 39.296C172.121 39.2 172.067 39.0773 172.067 38.928C172.067 38.776 172.121 38.6533 172.227 38.56C172.337 38.4667 172.478 38.42 172.651 38.42C172.827 38.42 172.969 38.468 173.075 38.564C173.185 38.6573 173.239 38.7787 173.239 38.928C173.239 39.0773 173.185 39.2 173.075 39.296C172.969 39.392 172.827 39.44 172.651 39.44ZM176.245 40.156C176.637 40.156 176.982 40.24 177.281 40.408C177.582 40.5733 177.817 40.8053 177.985 41.104C178.156 41.4 178.241 41.7413 178.241 42.128C178.241 42.504 178.154 42.84 177.981 43.136C177.81 43.432 177.573 43.6653 177.269 43.836C176.968 44.0067 176.617 44.092 176.217 44.092C175.825 44.092 175.478 44.008 175.177 43.84C174.878 43.672 174.644 43.44 174.473 43.144C174.305 42.8453 174.221 42.504 174.221 42.12C174.221 41.7387 174.306 41.4013 174.477 41.108C174.65 40.812 174.888 40.58 175.189 40.412C175.493 40.2413 175.845 40.156 176.245 40.156ZM176.529 43.744C176.75 43.712 176.93 43.6213 177.069 43.472C177.21 43.32 177.304 43.1173 177.349 42.864C177.397 42.608 177.392 42.308 177.333 41.964C177.274 41.6173 177.178 41.3307 177.045 41.104C176.912 40.8747 176.75 40.7093 176.561 40.608C176.372 40.504 176.162 40.4693 175.933 40.504C175.712 40.536 175.53 40.628 175.389 40.78C175.25 40.9293 175.157 41.1307 175.109 41.384C175.064 41.6373 175.07 41.9373 175.129 42.284C175.188 42.628 175.284 42.9147 175.417 43.144C175.55 43.3733 175.712 43.5387 175.901 43.64C176.09 43.7413 176.3 43.776 176.529 43.744ZM176.513 38.876C176.588 38.7293 176.666 38.6147 176.749 38.532C176.832 38.4493 176.934 38.416 177.057 38.432C177.166 38.4427 177.246 38.4867 177.297 38.564C177.35 38.6387 177.372 38.72 177.361 38.808C177.35 38.9013 177.31 38.9853 177.241 39.06C177.174 39.132 177.082 39.204 176.965 39.276L176.261 39.812C176.232 39.8253 176.2 39.8333 176.165 39.836C176.133 39.836 176.105 39.8267 176.081 39.808C176.054 39.784 176.044 39.7573 176.049 39.728C176.057 39.6987 176.07 39.6693 176.089 39.64L176.513 38.876ZM180.277 40.396V43.44C180.277 43.5147 180.29 43.5707 180.317 43.608C180.343 43.6427 180.383 43.6667 180.437 43.68L180.613 43.724C180.698 43.7507 180.741 43.796 180.741 43.86C180.741 43.9533 180.678 44 180.553 44H179.121C179.059 44 179.014 43.988 178.985 43.964C178.955 43.94 178.941 43.9067 178.941 43.864C178.941 43.832 178.951 43.804 178.973 43.78C178.997 43.756 179.033 43.7373 179.081 43.724L179.269 43.68C179.322 43.6667 179.362 43.6427 179.389 43.608C179.415 43.5707 179.429 43.516 179.429 43.444V40.968C179.429 40.9067 179.418 40.8627 179.397 40.836C179.378 40.8093 179.345 40.7933 179.297 40.788L179.029 40.776C178.981 40.768 178.946 40.7547 178.925 40.736C178.906 40.7147 178.897 40.6893 178.897 40.66C178.897 40.6253 178.907 40.596 178.929 40.572C178.953 40.548 178.995 40.5253 179.057 40.504L179.717 40.272C179.799 40.24 179.867 40.2173 179.921 40.204C179.977 40.1907 180.026 40.184 180.069 40.184C180.138 40.184 180.19 40.2027 180.225 40.24C180.259 40.2773 180.277 40.3293 180.277 40.396ZM180.161 41.248L180.001 41.088L180.177 40.936C180.497 40.648 180.777 40.4453 181.017 40.328C181.257 40.2107 181.487 40.152 181.709 40.152C182.047 40.152 182.319 40.2587 182.525 40.472C182.733 40.6853 182.837 40.9733 182.837 41.336V43.428C182.837 43.5053 182.851 43.564 182.881 43.604C182.913 43.6413 182.957 43.668 183.013 43.684L183.181 43.724C183.226 43.7373 183.259 43.756 183.281 43.78C183.305 43.804 183.317 43.832 183.317 43.864C183.317 43.9067 183.302 43.94 183.273 43.964C183.246 43.988 183.201 44 183.137 44H181.701C181.575 44 181.513 43.9533 181.513 43.86C181.513 43.796 181.555 43.7507 181.641 43.724L181.825 43.68C181.883 43.6667 181.925 43.64 181.949 43.6C181.975 43.56 181.989 43.5027 181.989 43.428V41.468C181.989 41.2013 181.922 41.0013 181.789 40.868C181.658 40.7347 181.483 40.668 181.265 40.668C181.131 40.668 180.986 40.7027 180.829 40.772C180.674 40.8413 180.509 40.9507 180.333 41.1L180.161 41.248Z" fill="#E8EEF7"/>
</svg>
